<svg id="color" enable-background="new 0 0 24 24" height="512" viewBox="0 0 24 24" width="512" xmlns="http://www.w3.org/2000/svg"><path d="m22.25 24h-8.5c-.414 0-.75-.336-.75-.75v-13.5c0-.226.102-.44.277-.582.175-.143.404-.199.626-.152l8.717 1.826c.816.181 1.38.883 1.38 1.71v9.698c0 .965-.785 1.75-1.75 1.75z" fill="#90a4ae"/><path d="m14.5 9.141v14.859h-.75 5.25v-13.916z" fill="#7d8f97"/><path d="m13.03 1.87-10.99-1.67c-.51-.08-1.03.06-1.42.39-.39.34-.62.83-.62 1.34v21.07c0 .55.45 1 1 1h3.25v-5.25c0-.97.78-1.75 1.75-1.75h2.5c.97 0 1.75.78 1.75 1.75v5.25h4.25v-20.4c0-.86-.62-1.59-1.47-1.73z" fill="#607d8b"/><path d="m10.25 18.75v5.25h-6v-5.25c0-.97.78-1.75 1.75-1.75h2.5c.97 0 1.75.78 1.75 1.75z" fill="#eceff1"/><path d="m1.758.178c-.415 0-.82.143-1.138.412-.39.34-.62.83-.62 1.34v21.07c0 .55.45 1 1 1h3.25v-5.25c0-.97.78-1.75 1.75-1.75h1.25v-16.008l-5.21-.792c-.094-.015-.188-.022-.282-.022z" fill="#546d79"/><path d="m7.25 17h-1.25c-.97 0-1.75.78-1.75 1.75v5.25h3z" fill="#cdd0d2"/><g fill="#eceff1"><path d="m5.5 8.75h-1.5c-.414 0-.75-.336-.75-.75s.336-.75.75-.75h1.5c.414 0 .75.336.75.75s-.336.75-.75.75z"/><path d="m10.5 8.75h-1.5c-.414 0-.75-.336-.75-.75s.336-.75.75-.75h1.5c.414 0 .75.336.75.75s-.336.75-.75.75z"/><path d="m5.5 11.75h-1.5c-.414 0-.75-.336-.75-.75s.336-.75.75-.75h1.5c.414 0 .75.336.75.75s-.336.75-.75.75z"/><path d="m10.5 11.75h-1.5c-.414 0-.75-.336-.75-.75s.336-.75.75-.75h1.5c.414 0 .75.336.75.75s-.336.75-.75.75z"/><path d="m5.5 14.75h-1.5c-.414 0-.75-.336-.75-.75s.336-.75.75-.75h1.5c.414 0 .75.336.75.75s-.336.75-.75.75z"/><path d="m10.5 14.75h-1.5c-.414 0-.75-.336-.75-.75s.336-.75.75-.75h1.5c.414 0 .75.336.75.75s-.336.75-.75.75z"/><path d="m19.75 18h-1.5c-.414 0-.75-.336-.75-.75s.336-.75.75-.75h1.5c.414 0 .75.336.75.75s-.336.75-.75.75z"/><path d="m19.75 21h-1.5c-.414 0-.75-.336-.75-.75s.336-.75.75-.75h1.5c.414 0 .75.336.75.75s-.336.75-.75.75z"/><path d="m5.5 5.75h-1.5c-.414 0-.75-.336-.75-.75s.336-.75.75-.75h1.5c.414 0 .75.336.75.75s-.336.75-.75.75z"/><path d="m10.5 5.75h-1.5c-.414 0-.75-.336-.75-.75s.336-.75.75-.75h1.5c.414 0 .75.336.75.75s-.336.75-.75.75z"/><path d="m19.75 15h-1.5c-.414 0-.75-.336-.75-.75s.336-.75.75-.75h1.5c.414 0 .75.336.75.75s-.336.75-.75.75z"/></g><path d="m6.25 5h-3c0 .414.336.75.75.75h1.5c.414 0 .75-.336.75-.75z" fill="#cdd0d2"/><path d="m11.25 5h-3c0 .414.336.75.75.75h1.5c.414 0 .75-.336.75-.75z" fill="#cdd0d2"/><path d="m6.25 8h-3c0 .414.336.75.75.75h1.5c.414 0 .75-.336.75-.75z" fill="#cdd0d2"/><path d="m11.25 8h-3c0 .414.336.75.75.75h1.5c.414 0 .75-.336.75-.75z" fill="#cdd0d2"/><path d="m6.25 11h-3c0 .414.336.75.75.75h1.5c.414 0 .75-.336.75-.75z" fill="#cdd0d2"/><path d="m11.25 11h-3c0 .414.336.75.75.75h1.5c.414 0 .75-.336.75-.75z" fill="#cdd0d2"/><path d="m6.25 14h-3c0 .414.336.75.75.75h1.5c.414 0 .75-.336.75-.75z" fill="#cdd0d2"/><path d="m11.25 14h-3c0 .414.336.75.75.75h1.5c.414 0 .75-.336.75-.75z" fill="#cdd0d2"/><path d="m20.5 14.25h-3c0 .414.336.75.75.75h1.5c.414 0 .75-.336.75-.75z" fill="#cdd0d2"/><path d="m20.5 17.25h-3c0 .414.336.75.75.75h1.5c.414 0 .75-.336.75-.75z" fill="#cdd0d2"/><path d="m20.5 20.25h-3c0 .414.336.75.75.75h1.5c.414 0 .75-.336.75-.75z" fill="#cdd0d2"/></svg>