<svg id="Fill_out_line" height="512" viewBox="0 0 512 512" width="512" xmlns="http://www.w3.org/2000/svg" data-name="Fill out line"><path d="m324.17993 328.16992a136.077 136.077 0 0 1 -164.17993 21.63013l68.01-117.80005z" fill="#8acce7"/><path d="m352 160h-136l-68.01 117.80005a136.00965 136.00965 0 1 1 204.01-117.80005z" fill="#e44042"/><path d="m352 160h-136l-68.01-117.8a136.036 136.036 0 0 1 204.01 117.8z" fill="#a2c32a"/><path d="m392 199.83008a135.57224 135.57224 0 0 1 -39.83008 96.16992l-96.16992-96.16992z" fill="#eedc9a"/><path d="m48 488h144a24 24 0 0 0 24-24v-216l-48-48h-120a24 24 0 0 0 -24 24v240a24 24 0 0 0 24 24z" fill="#eedc9a"/><path d="m168 200v48h48z" fill="#eebe33"/><rect fill="#8acce7" height="80" rx="24" width="128" x="304" y="408"/><rect fill="#2d80b3" height="80" rx="24" width="112" x="376" y="72"/><path d="m173.65723 194.34277a8.00235 8.00235 0 0 0 -5.65723-2.34277h-120a32.03667 32.03667 0 0 0 -32 32v240a32.03667 32.03667 0 0 0 32 32h144a32.03667 32.03667 0 0 0 32-32v-216a8.00235 8.00235 0 0 0 -2.34277-5.65723zm2.34277 24.97071 20.68652 20.68652h-20.68652zm16 260.68652h-144a16.01833 16.01833 0 0 1 -16-16v-240a16.01833 16.01833 0 0 1 16-16h112v40a8.00039 8.00039 0 0 0 8 8h40v208a16.01833 16.01833 0 0 1 -16 16z"/><path d="m48 224h32v16h-32z"/><path d="m80 272h80v16h-80z"/><path d="m176 272h16v16h-16z"/><path d="m160 336h32v16h-32z"/><path d="m48 336h96v16h-96z"/><path d="m128 304h64v16h-64z"/><path d="m48 304h64v16h-64z"/><path d="m48 368h48v16h-48z"/><path d="m112 368h80v16h-80z"/><path d="m48 400h80v16h-80z"/><path d="m144.798 400h31.202v16h-31.202z"/><path d="m152.798 432h31.202v16h-31.202z"/><path d="m231.76953 359.94531.46094 15.99414a145.74113 145.74113 0 0 0 16.93453-1.48245l-2.33-15.83a129.34553 129.34553 0 0 1 -15.06547 1.31831z"/><path d="m291.5332 361.26953a144.01653 144.01653 0 0 0 38.30371-27.44238 8.00119 8.00119 0 0 0 0-11.31445l-84.17968-84.1797-11.31446 11.31445 78.34864 78.34766a127.864 127.864 0 0 1 -28.22461 18.91894z"/><path d="m88.87695 175.06836a129.91974 129.91974 0 0 1 -.87695-15.06836 128.50923 128.50923 0 0 1 57.19458-106.64111l61.56742 106.64111-16.16528 28 13.85742 8 16.165-28h131.38086a8.00039 8.00039 0 0 0 8-8c0-79.40234-64.59766-144-144-144a143.9386 143.9386 0 0 0 -144 144 145.97794 145.97794 0 0 0 .98633 16.93164zm254.87598-23.06836h-123.13355l-61.57519-106.65454a128.09453 128.09453 0 0 1 56.95581-13.34546c67.8916 0 123.60742 53.13477 127.75293 120z"/><path d="m312 191.83008h-56a8.00065 8.00065 0 0 0 -5.65723 13.65722l96.16993 96.16993a8.0018 8.0018 0 0 0 11.31445 0 143.05884 143.05884 0 0 0 42.17285-101.82715 8.00039 8.00039 0 0 0 -8-8h-16v16h7.75586a126.89233 126.89233 0 0 1 -31.75879 76.68359l-76.68359-76.68359h36.68652z"/><path d="m253.65723 330.34277-11.31446 11.31446 48 48a8.00235 8.00235 0 0 0 5.65723 2.34277h144v-16h-140.68652z"/><path d="m408 400h-80a32.03667 32.03667 0 0 0 -32 32v32a32.03667 32.03667 0 0 0 32 32h80a32.03667 32.03667 0 0 0 32-32v-32a32.03667 32.03667 0 0 0 -32-32zm16 64a16.01833 16.01833 0 0 1 -16 16h-80a16.01833 16.01833 0 0 1 -16-16v-32a16.01833 16.01833 0 0 1 16-16h80a16.01833 16.01833 0 0 1 16 16z"/><path d="m336 424h48v16h-48z"/><path d="m400 424h16v16h-16z"/><path d="m320 456h16v16h-16z"/><path d="m352 456h48v16h-48z"/><path d="m464 64h-64a32.03667 32.03667 0 0 0 -32 32v32a32.03667 32.03667 0 0 0 32 32h64a32.03667 32.03667 0 0 0 32-32v-32a32.03667 32.03667 0 0 0 -32-32zm16 64a16.01833 16.01833 0 0 1 -16 16h-64a16.01833 16.01833 0 0 1 -16-16v-32a16.01833 16.01833 0 0 1 16-16h64a16.01833 16.01833 0 0 1 16 16z"/><path d="m408 88h32v16h-32z"/><path d="m456 88h16v16h-16z"/><path d="m392 120h16v16h-16z"/><path d="m424 120h32v16h-32z"/><path d="m362.34277 170.34277-40 40 11.31446 11.31446 37.65625-37.65723h124.68652v-16h-128a8.00235 8.00235 0 0 0 -5.65723 2.34277z"/></svg>